<svg xmlns="http://www.w3.org/2000/svg" version="1.1" xmlns:xlink="http://www.w3.org/1999/xlink" xmlns:svgjs="http://svgjs.dev/svgjs" viewBox="0 0 800 800" opacity="1"><g stroke-width="2" stroke="hsl(0, 0%, 40%)" fill="none"><path d="M608.089461316421 249.56802759392963C657.6665211560187 384.8546498307966 762.9074001070496 658.5541217390265 701.0704930116141 729.2191877556297C639.2335859161785 799.8842537722333 431.53428022494495 643.2707072383047 311.27230725833147 588.7603444736254C191.01033429171787 534.249981708946 169.31088451989353 538.8736020204384 123.81302277186876 467.56944648516935C78.31516102384398 396.2652909499002 68.70148946052808 327.55354912138773 92.88257086781135 246.50039790433425C117.06365227509468 165.4472466872807 162.7534562531331 113.23452832782522 239.88221352682763 78.51432064331141C317.0109708005223 43.7941129587976 386.3907624920462 44.207212070623825 463.1006057815448 79.84340101866911C539.8104490710436 115.4795899667144 558.5124014768232 114.28140535706257 608.089461316421 249.56802759392963C657.6665211560187 384.8546498307966 762.9074001070496 658.5541217390265 701.0704930116141 729.2191877556297 "></path><path d="M597.6849607847796 257.089595696655C644.7831676323975 385.6118868216786 744.7620026358768 645.626385134497 686.0169408952131 712.7581978502702C627.2718791545493 779.8900105660434 429.9575387478774 631.1071413588113 315.7086644295946 579.3222967323659C201.45979011131163 527.5374521059207 180.84531282807853 531.9298914018383 137.62234416745497 464.19094364333273C94.39937550683146 396.45199588482706 85.26638752168134 331.17584114774024 108.23841485860049 254.17534749153936C131.2104421955196 177.17485383533852 174.6157559746561 127.57277139385582 247.88807538466597 94.58857409356773C321.16039479467577 61.60437679327964 387.0711969016236 61.99682094951453 459.94554802664743 95.85120045015753C532.8198991516712 129.7055799508006 550.5867539371618 128.56730457163133 597.6849607847796 257.089595696655C644.7831676323975 385.6118868216786 744.7620026358768 645.626385134497 686.0169408952131 712.7581978502702 "></path><path d="M587.2804907707164 264.61122483453664C631.8998446263544 386.36918484771695 726.6166356822821 632.698709565124 670.9634192963902 696.297268980067C615.3102029104982 759.8958283950101 428.38082778838793 618.9436365144742 320.14505211843584 569.8843100262629C211.90927644848352 520.8249835380516 192.37977165384166 524.9862418183945 151.43169608061936 460.8125018366525C110.48362050739706 396.6387618549102 101.83131610041278 334.798194209249 123.5942893669677 261.8503581139008C145.35726263352268 188.90252201855265 186.47808621375725 141.91107549504272 255.89396776008243 110.6628885789803C325.3098493064075 79.41470166291788 387.751661828779 79.78649086356143 456.79052078932796 111.8590609168022C525.8293797498768 143.931630970043 542.6611369150785 142.85326482135628 587.2804907707164 264.61122483453664C631.8998446263544 386.36918484771695 726.6166356822821 632.698709565124 670.9634192963902 696.297268980067 "></path><path d="M576.8760207566531 272.13282345484015C619.0165216203111 387.1264523561772 708.4712687286875 619.7710034781726 655.9098976975672 679.8363095922854C603.3485266664471 739.9016157063983 426.8041168288985 606.7801011525589 324.581439807277 560.4462928025816C222.35876278565547 514.1124844526041 203.91423047960478 518.0425617173727 165.24104799378375 457.434029512394C126.56786550796267 396.82549730741516 118.39624467914416 338.42051675317964 138.95016387533497 269.52533821868406C159.50408307152577 200.63015968418858 198.34041645285845 156.24934907865145 263.8998601354988 126.73717254681469C329.45930381813923 97.22499601497799 388.4321267559344 97.57613026003025 453.6354935520085 127.86689086586875C518.8388603480823 158.15765147170725 534.7355198929951 157.13919455350316 576.8760207566531 272.13282345484015C619.0165216203111 387.1264523561772 708.4712687286875 619.7710034781726 655.9098976975672 679.8363095922854 "></path><path d="M566.4715507425899 279.65442207514366C606.1331986142682 387.8837198646372 690.3259017750928 606.8432973912212 640.8563760987445 663.3753502045039C591.386850422396 719.9074030177866 425.22740586940904 594.6165657906438 329.01782749611823 551.0082755789003C232.80824912282742 507.3999853671569 215.4486893053679 511.0988816163507 179.0503999069481 454.0555571881355C142.65211050852827 397.01223275992015 134.9611732578756 342.0428392971103 154.30603838370223 277.2003183234674C173.65090350952886 212.35779734982452 210.2027466919596 170.58762266226017 271.90575251091525 142.81145651464914C333.60875832987085 115.0352903670381 389.11259168309005 115.36576965649908 450.480466314689 143.8747208149353C511.8483409462881 172.38367197337152 526.8099028709116 171.42512428565004 566.4715507425899 279.65442207514366C606.1331986142682 387.8837198646372 690.3259017750928 606.8432973912212 640.8563760987445 663.3753502045039 "></path><path d="M556.0670807285267 287.17602069544716C593.249875608225 388.64098737309746 672.1805348214981 593.9155913042699 625.8028544999215 646.9143908167223C579.4251741783448 699.9131903291749 423.6506949099196 582.4530304287284 333.4542151849595 541.570258355219C243.2577354599993 500.68748628170954 226.9831481311311 504.1552015153288 192.85975182011248 450.677084863877C158.73635550909393 397.19896821242514 151.52610183660698 345.6651618410408 169.66191289206944 284.87529842825063C187.79772394753195 224.08543501546052 222.06507693106073 184.9258962458689 279.91164488633166 158.88574048248358C337.7582128416026 132.8455847190982 389.79305661024557 133.15540905296785 447.32543907736965 159.88255076400185C504.85782154449373 186.60969247503584 518.8842858488283 185.71105401779693 556.0670807285267 287.17602069544716C593.249875608225 388.64098737309746 672.1805348214981 593.9155913042699 625.8028544999215 646.9143908167223 "></path><path d="M545.6626107144634 294.6975887981726C580.3665526021819 389.39822436397947 654.0351678679035 580.9878546997404 610.7493329010986 630.4534009113628C567.4634979342937 679.9189471229852 422.07398395043026 570.2894645492352 337.89060287380073 532.1322106139596C253.70722179717126 493.97495667868407 238.5176069568942 497.2114908967287 206.66910373327687 447.29858202204036C174.82060050965953 397.385673147352 168.09103041533842 349.2874538673933 185.0177874004367 292.55024801545585C201.94454438553498 235.8130421635184 233.92740717016193 199.2641393118995 287.9175372617481 174.95999393273985C341.9076673533343 150.6558485535802 390.473521537401 150.94501793185856 444.1704118400502 175.89035019549027C497.8673021426994 200.83568245912198 510.958668826745 199.99695323236568 545.6626107144634 294.6975887981726C580.3665526021819 389.39822436397947 654.0351678679035 580.9878546997404 610.7493329010986 630.4534009113628 "></path><path d="M535.2581407004002 302.21921793605424C567.4832295961387 390.1555223900177 635.8898009143088 568.0601791303673 595.6958113022757 613.9924720411593C555.5018216902427 659.9247649519516 420.4972729909408 558.1259597048979 342.326990562642 522.6942239078564C264.15670813434315 487.26248811081496 250.05206578265734 490.267841313285 220.47845564644126 443.9201402153601C190.90484551022513 397.5724391174351 184.6559589940698 352.90980692890207 200.37366190880397 300.22525863781726C216.09136482353807 247.54071034673245 245.78973740926307 213.6024434130864 295.92342963716453 191.03430841815242C346.05712186506594 168.46617342321844 391.1539864645565 168.7346878459055 441.0153846027307 191.89821066213494C490.8767827409049 215.06173347836437 503.0330518046617 214.28291348209063 535.2581407004002 302.21921793605424C567.4832295961387 390.1555223900177 635.8898009143088 568.0601791303673 595.6958113022757 613.9924720411593 "></path><path d="M524.853670686337 309.7408318151468C554.5999065900955 390.91280515726703 617.7444339607141 555.132488302205 580.6422897034529 597.531527912167C543.5401454461914 639.930567522129 418.92056203145137 545.9624396017718 346.76337825148323 513.2562219429643C274.6061944715151 480.5500042841568 261.58652460842046 483.32417647105217 234.2878075596056 440.5416831498907C206.98909051079073 397.7591898287292 201.2208875728012 356.53214473162177 215.72953641717118 307.9002540013896C230.23818526154116 259.26836327115745 257.6520676483642 227.9407322554842 303.929322012581 207.10860764477593C350.20657637679767 186.2764830340676 391.83445139171204 186.52434250116335 437.86035736541135 207.90605586999055C483.88626333911054 229.2877692388177 495.10743478257837 228.56885847302658 524.853670686337 309.7408318151468C554.5999065900955 390.91280515726703 617.7444339607141 555.132488302205 580.6422897034529 597.531527912167 "></path><path d="M514.4491854134847 317.2624151766613C541.7165683252633 391.6700574069381 599.5990517483303 542.2047669564645 565.5887528458409 581.0705532655963C531.5784539433514 619.9363395747282 417.34383581317286 533.7988889810675 351.1997506815354 503.81818946049395C285.0556655498979 473.8374899399204 273.1209681753946 476.3804811112411 248.09714421398093 437.1631955668431C223.07332025256733 397.9459100224451 217.78580089274357 360.15445201676334 231.08539566674938 315.57521884738384C244.3849904407552 270.9959856780044 269.51438262867634 242.27899058030386 311.93519912920834 223.18287635382126C354.35601562974034 204.08676212733872 392.5149010600785 204.3139666388431 434.7053148693028 223.91387056026804C476.8957286785271 243.51377448169296 487.181802501706 242.8547729463844 514.4491854134847 317.2624151766613C541.7165683252633 391.6700574069381 599.5990517483303 542.2047669564645 565.5887528458409 581.0705532655963 "></path><path d="M504.0447306582105 324.7840137969648C528.8332605780093 392.42732491539823 581.4537000535248 529.2770608695132 550.535246505807 564.6095938778149C519.6167929580893 599.9421268861166 415.7671401124725 521.6353536191523 355.63615362916573 494.38017223681277C295.50516714585893 467.124990854473 284.65544225994677 469.43680101021914 261.9065113859344 433.78472324258473C239.157580511922 398.1326454749501 234.350744730264 363.77677456069387 246.4412854339057 323.2501989521671C258.53182613754734 282.7236233436403 281.37672812656655 256.6172641639126 319.9411067634138 239.2571603216557C358.50548540026114 221.89705647939883 393.1953812460231 222.10360603531188 431.5503028907724 239.92170050933458C469.9052245355218 257.7397949833572 479.2562007384116 257.1407026785313 504.0447306582105 324.7840137969648C528.8332605780093 392.42732491539823 581.4537000535248 529.2770608695132 550.535246505807 564.6095938778149 "></path><path d="M493.64026064414725 332.3056276760574C515.9499375719663 393.18460768264754 563.3083330999301 516.349370041351 535.4817249069841 548.1486497488225C507.6551167140382 579.9479294562941 414.19042915298303 509.4718335160262 360.072541318007 484.94217027192053C305.9546534830308 460.41250702781485 296.1899010857099 462.49313616798634 275.7158632990987 430.4062661771153C255.2418255124876 398.31939618624415 250.91567330899545 367.39911236341356 261.7971599422729 330.9251943157395C272.67864657555043 294.4512762680654 293.2390583656677 270.9555530063104 327.9469991388303 255.3314595482792C362.6549399119928 239.707366090248 393.87584617317856 239.89326069056978 428.39527565345304 255.9295457171902C462.91470513372747 271.96583074381056 471.3305837163283 271.42664766946723 493.64026064414725 332.3056276760574C515.9499375719663 393.18460768264754 563.3083330999301 516.349370041351 535.4817249069841 548.1486497488225 "></path><path d="M483.235790630084 339.8272262963609C503.06661456592315 393.94187519110767 545.1629661463355 503.4216639543997 520.4282033081613 531.687690361041C495.6934404699871 559.9537167676824 412.6137181934936 497.30829815411096 364.5089290068482 475.50415304823923C316.4041398202028 453.7000079423675 307.724359911473 455.54945606696447 289.5252152122631 427.0277938528568C271.3260705130532 398.50613163874914 267.48060188772683 371.0214349073442 277.1530344506402 338.60017442052276C286.82546701355346 306.1789139337013 305.1013886047689 285.29382658991915 335.9528915142467 271.4057435161136C366.8043944237245 257.5176604423081 394.5563111003341 257.6829000870386 425.24024841613357 271.9373756662567C455.9241857319331 286.1918512454748 463.4049666942449 285.7125774016141 483.235790630084 339.8272262963609C503.06661456592315 393.94187519110767 545.1629661463355 503.4216639543997 520.4282033081613 531.687690361041 "></path><path d="M472.8313206160208 347.3487791402972C490.18329155988 394.69909692320067 527.0175991927408 490.49391209108114 505.37468170933835 515.2266851968923C483.7317642259359 539.9594583027035 411.0370072340042 485.1447170158285 368.9453166956894 466.06609004819074C326.85362615737466 446.98746308055297 319.2588187372362 448.6057301895753 303.3345671254275 423.6492757522311C287.4103155136188 398.69282131488694 284.0455304664583 374.6437116749076 292.5089089590074 346.27510874893886C300.97228745155655 317.90650582297013 316.96371884387 299.6320543971607 343.9587838896631 287.47998170758086C370.9538489354562 275.32790901800104 395.23677602748955 275.4724937071402 422.08522117881415 287.94515983895604C448.93366633013875 300.4178259707719 455.47934967216156 299.99846135739375 472.8313206160208 347.3487791402972C490.18329155988 394.69909692320067 527.0175991927408 490.49391209108114 505.37468170933835 515.2266851968923 "></path><path d="M462.4268353431685 354.8703777606008C477.29995329504777 395.45636443166086 508.87221698035705 477.56620600412987 490.32114485172644 498.7657258091108C471.7700727230957 519.9652456140918 409.4602810157257 472.98118165391327 373.3816891257416 456.62807282450945C337.30309723575755 440.27496399510574 330.79326230421026 441.6620500885534 317.1439037798028 420.2708034279727C303.4945452553954 398.87955676739193 300.6104437864006 378.26603421883823 307.8647682085856 353.95008885372215C315.1190926307706 329.63414348860607 328.8260338241821 313.97032798076947 351.9646610062905 303.5542656754153C375.10328818839884 293.13820337006115 395.917225695856 293.262133103609 418.9301786827057 303.9529897880226C441.94313166955527 314.6438464724362 447.5537173912892 314.28439108954063 462.4268353431685 354.8703777606008C477.29995329504777 395.45636443166086 508.87221698035705 477.56620600412987 490.32114485172644 498.7657258091108 "></path><path d="M452.02236532910524 362.39199163969334C464.4166302890046 396.21364719891005 490.72685002676235 464.63851517596754 475.2676232529035 482.30478168011837C459.80839647904463 499.9710481842692 407.88357005623624 460.8176615507871 377.81807681458287 447.1900708596173C347.75258357292944 433.56248016844745 342.3277211299734 434.7183852463205 330.95325569296716 416.8923463625033C319.578790255961 399.066307478686 317.17537236513203 381.88837202155787 323.22064271695285 361.6250842172945C329.26591306877367 341.36179641303113 340.68836406328325 328.30861682316726 359.9705533817069 319.6285649020388C379.25274270013057 310.9485129809103 396.59769062301154 311.0517877588669 415.7751514453862 319.9608349958782C434.9526122677609 328.86988223288955 439.6281003692058 328.5703360804766 452.02236532910524 362.39199163969334C464.4166302890046 396.21364719891005 490.72685002676235 464.63851517596754 475.2676232529035 482.30478168011837 "></path><path d="M441.61788005625294 369.9136055187859C451.5332920241725 396.9709299661593 472.5814678143787 451.7108243478053 460.2140863952916 465.84383755112594C447.8467049762045 479.9768507544467 406.30684383795773 448.65414144766095 382.25444924463505 437.7520688947251C358.2020546513123 426.8499963417892 353.86216469694745 427.7747204040877 344.7625923473425 413.51388929703387C335.66301999773754 399.25305818998004 333.74028568507435 385.51070982427757 338.576501966531 369.30007958086685C343.4127182479877 353.08944933745613 352.5506790435954 342.64690566556504 367.97643049833425 335.70286412866227C383.4021819530732 328.7588225917595 397.27814029137795 328.84144241412474 412.6201089492777 335.9686802037338C427.9620776071775 343.0959179933429 431.7024680883334 342.8562810714125 441.61788005625294 369.9136055187859C451.5332920241725 396.9709299661593 472.5814678143787 451.7108243478053 460.2140863952916 465.84383755112594 "></path><path d="M431.21342530097877 377.4352041390894C438.6499842769184 397.7281974746195 454.43611611957306 438.783118260854 445.16058005525775 449.38287816334446C435.8850439909424 459.982638065835 404.7301481372574 436.4906060857457 386.6908521922653 428.3140516710438C368.6515562472733 420.13749725634193 365.39663878149963 420.8310403030658 358.57195951929594 410.1354169727754C351.7472802570922 399.43979364248503 350.30522952259486 389.13303236820815 353.9323917336873 376.97505968565014C357.55955394477985 364.8170870030921 364.4130245414856 356.98517924917377 375.9823381325398 351.7771480964967C387.551651723594 346.56911694381967 397.95862047732254 346.63108181059357 409.46509697074737 351.97651015280036C420.97157346417214 357.32193849500715 423.7768663250391 357.1422108035594 431.21342530097877 377.4352041390894C438.6499842769184 397.7281974746195 454.43611611957306 438.783118260854 445.16058005525775 449.38287816334446 "></path><path d="M420.8089400281265 384.956802759393C425.76664601208626 398.4854649830797 436.29073390718935 425.85541217390266 430.1070431976458 432.921918775563C423.92335248810224 439.98842537722334 403.1534219189789 424.32707072383045 391.1272246223175 418.87603444736254C379.10102732565616 413.4249981708946 376.93108234847375 413.88736020204385 372.3812961736713 406.75694464851694C367.8315099988688 399.62652909499 366.8701428425372 392.7553549121388 369.2882509832655 384.6500397904334C371.7063591239938 376.54472466872807 376.27533952179766 371.32345283278255 383.9882152491671 367.85143206433116C391.7010909765366 364.3794112958798 398.639070145689 364.4207212070624 406.31005447463883 367.9843401018669C413.9810388035887 371.54795899667147 415.8512340441667 371.42814053570623 420.8089400281265 384.956802759393C425.76664601208626 398.4854649830797 436.29073390718935 425.85541217390266 430.1070431976458 432.921918775563 "></path><path d="M410.40447001406324 392.4784013796965C412.8833230060431 399.2427324915398 418.14536695359465 412.92770608695133 415.0535215988229 416.4609593877815C411.9616762440511 419.99421268861164 401.57671095948945 412.16353536191525 395.56361231115875 409.4380172236813C389.55051366282805 406.7124990854473 388.4655411742369 406.9436801010219 386.1906480868356 403.3784723242585C383.9157549994344 399.813264547495 383.4350714212686 396.37767745606936 384.64412549163274 392.3250198952167C385.8531795619969 388.27236233436406 388.13766976089886 385.6617264163913 391.9941076245836 383.92571603216555C395.8505454882683 382.1897056479399 399.3195350728445 382.21036060353117 403.1550272373194 383.99217005093345C406.99051940179436 385.77397949833573 407.9256170220834 385.7140702678531 410.40447001406324 392.4784013796965C412.8833230060431 399.2427324915398 418.14536695359465 412.92770608695133 415.0535215988229 416.4609593877815 "></path></g></svg>