<svg width="469" height="141" viewBox="0 0 469 141" fill="none" xmlns="http://www.w3.org/2000/svg">
<path d="M26.9115 59.216C26.9115 56.2293 28.0208 53.7547 30.2395 51.792C32.4582 49.8293 35.7862 48.848 40.2235 48.848V55.888C39.1142 57.2533 38.3035 58.3627 37.7915 59.216L38.3035 59.728C40.9488 56.2293 43.9355 53.5413 47.2635 51.664C50.5915 49.7867 54.6875 48.848 59.5515 48.848C66.7195 48.848 72.5222 50.9387 76.9595 55.12C81.4822 59.3013 83.7435 64.8053 83.7435 71.632V92.368C83.7435 96.8907 82.6342 100.901 80.4155 104.4C78.1968 107.813 75.1248 110.459 71.1995 112.336C67.3595 114.213 62.9648 115.152 58.0155 115.152C54.6022 115.152 51.1888 114.427 47.7755 112.976C44.3622 111.525 41.4608 109.605 39.0715 107.216L38.6875 107.856C39.1995 108.539 40.0955 109.435 41.3755 110.544V130.64C41.3755 137.381 36.5542 140.752 26.9115 140.752V59.216ZM55.3275 102.608C59.8502 102.608 63.3062 101.669 65.6955 99.792C68.1702 97.8293 69.4075 95.0987 69.4075 91.6V72.528C69.4075 68.8587 68.1702 66.0853 65.6955 64.208C63.3062 62.2453 59.8502 61.264 55.3275 61.264C51.2315 61.264 47.8608 62.288 45.2155 64.336C42.5702 66.384 41.2475 68.9013 41.2475 71.888V92.112C41.2475 95.0987 42.5275 97.616 45.0875 99.664C47.6475 101.627 51.0608 102.608 55.3275 102.608ZM130.299 61.264C125.349 61.264 121.296 62.672 118.139 65.488C114.981 68.2187 113.403 71.5893 113.403 75.6V105.936C113.403 109.179 112.208 111.525 109.819 112.976C107.515 114.427 103.931 115.152 99.0665 115.152V60.24C99.0665 52.6453 103.632 48.848 112.763 48.848V56.528C111.568 57.8933 110.587 59.2587 109.819 60.624L110.459 61.136C116.005 52.944 122.789 48.848 130.811 48.848C134.224 48.848 136.827 49.744 138.619 51.536C140.411 53.2427 141.307 55.4187 141.307 58.064C141.307 60.0267 140.795 61.776 139.771 63.312C137.296 61.9467 134.139 61.264 130.299 61.264ZM172.081 115.152C166.619 115.152 161.67 114.171 157.233 112.208C152.881 110.16 149.425 107.387 146.865 103.888C144.39 100.389 143.153 96.4213 143.153 91.984V73.04C143.153 68.5173 144.39 64.4213 146.865 60.752C149.339 57.0827 152.753 54.1813 157.105 52.048C161.542 49.9147 166.534 48.848 172.081 48.848C177.627 48.848 182.577 49.9147 186.929 52.048C191.366 54.1813 194.822 57.0827 197.297 60.752C199.771 64.4213 201.009 68.5173 201.009 73.04V91.984C201.009 96.4213 199.729 100.389 197.169 103.888C194.694 107.387 191.238 110.16 186.801 112.208C182.449 114.171 177.542 115.152 172.081 115.152ZM172.081 102.736C176.603 102.736 180.187 101.712 182.833 99.664C185.478 97.5307 186.801 94.672 186.801 91.088V73.68C186.801 69.9253 185.478 66.896 182.833 64.592C180.187 62.288 176.603 61.136 172.081 61.136C167.558 61.136 163.974 62.288 161.329 64.592C158.683 66.896 157.361 69.9253 157.361 73.68V91.088C157.361 94.672 158.683 97.5307 161.329 99.664C163.974 101.712 167.558 102.736 172.081 102.736ZM226.977 41.552C224.161 41.552 221.814 40.6987 219.937 38.992C218.059 37.2 217.121 34.9813 217.121 32.336C217.121 29.6907 218.059 27.5147 219.937 25.808C221.814 24.1013 224.161 23.248 226.977 23.248C229.793 23.248 232.139 24.1013 234.017 25.808C235.894 27.5147 236.833 29.6907 236.833 32.336C236.833 34.9813 235.894 37.2 234.017 38.992C232.139 40.6987 229.793 41.552 226.977 41.552ZM212.128 140.752C207.691 140.752 204.065 139.685 201.249 137.552C198.518 135.504 197.153 132.987 197.153 130C197.153 127.355 198.134 125.477 200.097 124.368C202.571 127.013 205.985 128.336 210.337 128.336C213.494 128.336 215.841 127.483 217.377 125.776C218.998 124.069 219.809 121.637 219.809 118.48V58.064C219.809 54.8213 221.003 52.4747 223.393 51.024C225.782 49.5733 229.366 48.848 234.145 48.848V118.736C234.145 122.832 233.249 126.544 231.457 129.872C229.665 133.285 227.105 135.931 223.777 137.808C220.449 139.771 216.566 140.752 212.128 140.752ZM278.167 115.152C272.962 115.152 268.184 114.128 263.831 112.08C259.565 110.032 256.194 107.216 253.719 103.632C251.245 99.9627 250.007 95.8667 250.007 91.344V73.68C250.007 68.9867 251.287 64.7627 253.847 61.008C256.407 57.2533 259.863 54.3093 264.215 52.176C268.567 49.9573 273.261 48.848 278.296 48.848C283.33 48.848 287.896 49.872 291.992 51.92C296.173 53.968 299.458 56.8693 301.847 60.624C304.322 64.2933 305.56 68.432 305.56 73.04V80.592C305.56 82.2987 304.92 83.7493 303.64 84.944C302.36 86.1387 300.738 86.736 298.776 86.736H263.959V90.448C263.959 94.3733 265.154 97.5307 267.543 99.92C270.018 102.309 273.602 103.504 278.296 103.504C282.904 103.504 286.36 102.523 288.664 100.56C290.968 98.512 292.119 95.824 292.119 92.496C292.632 92.4107 293.4 92.368 294.424 92.368C297.325 92.368 299.629 93.0507 301.336 94.416C303.128 95.696 304.024 97.5307 304.024 99.92C304.024 102.48 302.872 104.955 300.568 107.344C298.264 109.648 295.106 111.525 291.096 112.976C287.17 114.427 282.861 115.152 278.167 115.152ZM292.375 76.112V73.04C292.375 69.2 291.053 66.128 288.408 63.824C285.848 61.4347 282.434 60.24 278.167 60.24C273.901 60.24 270.445 61.4347 267.799 63.824C265.239 66.128 263.959 69.2 263.959 73.04V76.112H292.375ZM344.986 115.152C338.33 115.152 333.381 113.232 330.138 109.392C326.981 105.552 325.402 100.603 325.402 94.544V60.88H312.602C312.602 57.2107 313.328 54.48 314.778 52.688C316.229 50.896 318.192 50 320.666 50H325.53V38.864C325.53 35.6213 326.682 33.2747 328.986 31.824C331.376 30.3733 334.917 29.648 339.61 29.648V50H356.634C356.634 53.84 355.866 56.6133 354.331 58.32C352.795 60.0267 350.363 60.88 347.035 60.88H339.738V94.032C339.738 97.104 340.336 99.3227 341.53 100.688C342.725 101.968 344.816 102.608 347.802 102.608C350.789 102.608 353.733 101.797 356.634 100.176C357.402 100.859 357.957 101.712 358.299 102.736C358.725 103.76 358.938 104.827 358.938 105.936C358.938 108.325 357.701 110.459 355.227 112.336C352.752 114.213 349.338 115.152 344.986 115.152Z" fill="white"/>
<path d="M381.548 31.44C381.89 29.4773 382.914 27.8133 384.62 26.448C386.412 25.0827 388.418 24.4 390.636 24.4H424.94C432.621 24.4 438.594 26.2347 442.86 29.904C447.127 33.5733 449.26 38.7787 449.26 45.52C449.26 51.92 447.767 57.4667 444.781 62.16C441.879 66.8533 437.655 70.3947 432.108 72.784V73.296C437.911 76.0267 440.812 80.8053 440.812 87.632C440.812 88.5707 440.642 90.1493 440.3 92.368L438.381 103.376C437.698 107.216 435.863 110.16 432.877 112.208C429.89 114.171 425.879 115.152 420.844 115.152L424.684 93.008C424.94 91.3013 425.069 89.808 425.069 88.528C425.069 82.2987 421.826 79.184 415.34 79.184H388.332L384.108 103.376C383.511 107.216 381.719 110.16 378.732 112.208C375.831 114.171 371.863 115.152 366.828 115.152L381.548 31.44ZM416.876 66C421.826 66 425.836 64.2933 428.909 60.88C431.981 57.4667 433.517 53.072 433.517 47.696C433.517 44.368 432.535 41.8507 430.573 40.144C428.61 38.4373 425.751 37.584 421.996 37.584H395.756L390.636 66H416.876Z" fill="#00BBF9"/>
<path d="M365 123L436 123" stroke="white" stroke-width="6" stroke-linecap="round"/>
</svg>
