<svg width="469" height="135" viewBox="0 0 469 135" fill="none" xmlns="http://www.w3.org/2000/svg">
<path d="M68.1211 72.912C68.1211 70.672 68.9531 68.816 70.6171 67.344C72.2811 65.872 74.7771 65.136 78.1051 65.136V70.416C77.2731 71.44 76.6651 72.272 76.2811 72.912L76.6651 73.296C78.6491 70.672 80.8891 68.656 83.3851 67.248C85.8811 65.84 88.9531 65.136 92.6011 65.136C97.9771 65.136 102.329 66.704 105.657 69.84C109.049 72.976 110.745 77.104 110.745 82.224V97.776C110.745 101.168 109.913 104.176 108.249 106.8C106.585 109.36 104.281 111.344 101.337 112.752C98.4571 114.16 95.1611 114.864 91.4491 114.864C88.8891 114.864 86.3291 114.32 83.7691 113.232C81.2091 112.144 79.0331 110.704 77.2411 108.912L76.9531 109.392C77.3371 109.904 78.0091 110.576 78.9691 111.408V126.48C78.9691 131.536 75.3531 134.064 68.1211 134.064V72.912ZM89.4331 105.456C92.8251 105.456 95.4171 104.752 97.2091 103.344C99.0651 101.872 99.9931 99.824 99.9931 97.2V82.896C99.9931 80.144 99.0651 78.064 97.2091 76.656C95.4171 75.184 92.8251 74.448 89.4331 74.448C86.3611 74.448 83.8331 75.216 81.8491 76.752C79.8651 78.288 78.8731 80.176 78.8731 82.416V97.584C78.8731 99.824 79.8331 101.712 81.7531 103.248C83.6731 104.72 86.2331 105.456 89.4331 105.456ZM145.661 74.448C141.949 74.448 138.909 75.504 136.541 77.616C134.173 79.664 132.989 82.192 132.989 85.2V107.952C132.989 110.384 132.093 112.144 130.301 113.232C128.573 114.32 125.885 114.864 122.237 114.864V73.68C122.237 67.984 125.661 65.136 132.509 65.136V70.896C131.613 71.92 130.877 72.944 130.301 73.968L130.781 74.352C134.941 68.208 140.029 65.136 146.045 65.136C148.605 65.136 150.557 65.808 151.901 67.152C153.245 68.432 153.917 70.064 153.917 72.048C153.917 73.52 153.533 74.832 152.765 75.984C150.909 74.96 148.541 74.448 145.661 74.448ZM176.998 114.864C172.902 114.864 169.19 114.128 165.862 112.656C162.598 111.12 160.006 109.04 158.086 106.416C156.23 103.792 155.302 100.816 155.302 97.488V83.28C155.302 79.888 156.23 76.816 158.086 74.064C159.942 71.312 162.502 69.136 165.766 67.536C169.094 65.936 172.838 65.136 176.998 65.136C181.158 65.136 184.87 65.936 188.134 67.536C191.462 69.136 194.054 71.312 195.91 74.064C197.766 76.816 198.694 79.888 198.694 83.28V97.488C198.694 100.816 197.734 103.792 195.814 106.416C193.958 109.04 191.366 111.12 188.038 112.656C184.774 114.128 181.094 114.864 176.998 114.864ZM176.998 105.552C180.39 105.552 183.078 104.784 185.062 103.248C187.046 101.648 188.038 99.504 188.038 96.816V83.76C188.038 80.944 187.046 78.672 185.062 76.944C183.078 75.216 180.39 74.352 176.998 74.352C173.606 74.352 170.918 75.216 168.934 76.944C166.95 78.672 165.958 80.944 165.958 83.76V96.816C165.958 99.504 166.95 101.648 168.934 103.248C170.918 104.784 173.606 105.552 176.998 105.552ZM218.17 59.664C216.058 59.664 214.298 59.024 212.89 57.744C211.482 56.4 210.778 54.736 210.778 52.752C210.778 50.768 211.482 49.136 212.89 47.856C214.298 46.576 216.058 45.936 218.17 45.936C220.282 45.936 222.042 46.576 223.45 47.856C224.858 49.136 225.562 50.768 225.562 52.752C225.562 54.736 224.858 56.4 223.45 57.744C222.042 59.024 220.282 59.664 218.17 59.664ZM207.034 134.064C203.706 134.064 200.986 133.264 198.874 131.664C196.826 130.128 195.802 128.24 195.802 126C195.802 124.016 196.538 122.608 198.01 121.776C199.866 123.76 202.426 124.752 205.69 124.752C208.058 124.752 209.818 124.112 210.97 122.832C212.186 121.552 212.794 119.728 212.794 117.36V72.048C212.794 69.616 213.69 67.856 215.482 66.768C217.274 65.68 219.962 65.136 223.546 65.136V117.552C223.546 120.624 222.874 123.408 221.53 125.904C220.186 128.464 218.266 130.448 215.77 131.856C213.274 133.328 210.362 134.064 207.034 134.064ZM256.563 114.864C252.659 114.864 249.075 114.096 245.811 112.56C242.611 111.024 240.083 108.912 238.227 106.224C236.371 103.472 235.443 100.4 235.443 97.008V83.76C235.443 80.24 236.403 77.072 238.323 74.256C240.243 71.44 242.835 69.232 246.099 67.632C249.363 65.968 252.883 65.136 256.659 65.136C260.435 65.136 263.859 65.904 266.931 67.44C270.067 68.976 272.531 71.152 274.323 73.968C276.179 76.72 277.107 79.824 277.107 83.28V88.944C277.107 90.224 276.627 91.312 275.667 92.208C274.707 93.104 273.491 93.552 272.019 93.552H245.907V96.336C245.907 99.28 246.803 101.648 248.595 103.44C250.451 105.232 253.139 106.128 256.659 106.128C260.115 106.128 262.707 105.392 264.435 103.92C266.163 102.384 267.027 100.368 267.027 97.872C267.411 97.808 267.987 97.776 268.755 97.776C270.931 97.776 272.659 98.288 273.939 99.312C275.283 100.272 275.955 101.648 275.955 103.44C275.955 105.36 275.091 107.216 273.363 109.008C271.635 110.736 269.267 112.144 266.259 113.232C263.315 114.32 260.083 114.864 256.563 114.864ZM267.219 85.584V83.28C267.219 80.4 266.227 78.096 264.243 76.368C262.323 74.576 259.763 73.68 256.563 73.68C253.363 73.68 250.771 74.576 248.787 76.368C246.867 78.096 245.907 80.4 245.907 83.28V85.584H267.219ZM306.677 114.864C301.685 114.864 297.973 113.424 295.541 110.544C293.173 107.664 291.989 103.952 291.989 99.408V74.16H282.389C282.389 71.408 282.933 69.36 284.021 68.016C285.109 66.672 286.581 66 288.437 66H292.085V57.648C292.085 55.216 292.949 53.456 294.677 52.368C296.469 51.28 299.125 50.736 302.645 50.736V66H315.413C315.413 68.88 314.837 70.96 313.685 72.24C312.533 73.52 310.709 74.16 308.213 74.16H302.741V99.024C302.741 101.328 303.189 102.992 304.085 104.016C304.981 104.976 306.549 105.456 308.789 105.456C311.029 105.456 313.237 104.848 315.413 103.632C315.989 104.144 316.405 104.784 316.661 105.552C316.981 106.32 317.141 107.12 317.141 107.952C317.141 109.744 316.213 111.344 314.357 112.752C312.501 114.16 309.941 114.864 306.677 114.864Z" fill="white"/>
<path d="M338.323 31.44C338.664 29.4773 339.688 27.8133 341.395 26.448C343.187 25.0827 345.192 24.4 347.411 24.4H381.715C389.395 24.4 395.368 26.2347 399.635 29.904C403.902 33.5733 406.035 38.7787 406.035 45.52C406.035 51.92 404.542 57.4667 401.555 62.16C398.654 66.8533 394.43 70.3947 388.883 72.784V73.296C394.686 76.0267 397.587 80.8053 397.587 87.632C397.587 88.5707 397.416 90.1493 397.075 92.368L395.155 103.376C394.472 107.216 392.638 110.16 389.651 112.208C386.664 114.171 382.654 115.152 377.619 115.152L381.459 93.008C381.715 91.3013 381.843 89.808 381.843 88.528C381.843 82.2987 378.6 79.184 372.115 79.184H345.107L340.883 103.376C340.286 107.216 338.494 110.16 335.507 112.208C332.606 114.171 328.638 115.152 323.603 115.152L338.323 31.44ZM373.651 66C378.6 66 382.611 64.2933 385.683 60.88C388.755 57.4667 390.291 53.072 390.291 47.696C390.291 44.368 389.31 41.8507 387.347 40.144C385.384 38.4373 382.526 37.584 378.771 37.584H352.531L347.411 66H373.651Z" fill="#00BBF9"/>
<path d="M324 126L395 126" stroke="white" stroke-width="6" stroke-linecap="round"/>
</svg>
