<svg width="92" height="129" viewBox="0 0 92 129" fill="none" xmlns="http://www.w3.org/2000/svg">
<path d="M20.146 31.44C20.4873 29.4773 21.5113 27.8133 23.218 26.448C25.01 25.0827 27.0153 24.4 29.234 24.4H63.538C71.218 24.4 77.1913 26.2347 81.458 29.904C85.7247 33.5733 87.858 38.7787 87.858 45.52C87.858 51.92 86.3647 57.4667 83.378 62.16C80.4767 66.8533 76.2527 70.3947 70.706 72.784V73.296C76.5087 76.0267 79.41 80.8053 79.41 87.632C79.41 88.5707 79.2393 90.1493 78.898 92.368L76.978 103.376C76.2953 107.216 74.4607 110.16 71.474 112.208C68.4873 114.171 64.4767 115.152 59.442 115.152L63.282 93.008C63.538 91.3013 63.666 89.808 63.666 88.528C63.666 82.2987 60.4233 79.184 53.938 79.184H26.93L22.706 103.376C22.1087 107.216 20.3167 110.16 17.33 112.208C14.4287 114.171 10.4607 115.152 5.426 115.152L20.146 31.44ZM55.474 66C60.4233 66 64.434 64.2933 67.506 60.88C70.578 57.4667 72.114 53.072 72.114 47.696C72.114 44.368 71.1327 41.8507 69.17 40.144C67.2073 38.4373 64.3487 37.584 60.594 37.584H34.354L29.234 66H55.474Z" fill="#00BBF9"/>
<path d="M4 126L75 126" stroke="white" stroke-width="6" stroke-linecap="round"/>
</svg>
